<mxfile host="Electron" modified="2024-01-16T21:55:22.908Z" agent="Mozilla/5.0 (Windows NT 10.0; Win64; x64) AppleWebKit/537.36 (KHTML, like Gecko) draw.io/22.1.18 Chrome/120.0.6099.199 Electron/28.1.2 Safari/537.36" etag="55hEltGkbvUd7oHN11Kz" version="22.1.18" type="device">
  <diagram name="Page-1" id="kxbQNstv3DW5atoGjj-q">
    <mxGraphModel dx="887" dy="471" grid="1" gridSize="10" guides="1" tooltips="1" connect="1" arrows="1" fold="1" page="1" pageScale="1" pageWidth="850" pageHeight="1100" math="0" shadow="0">
      <root>
        <mxCell id="0" />
        <mxCell id="1" parent="0" />
        <mxCell id="FloDfBj_NZVXO9WBRrSj-41" value="" style="group" vertex="1" connectable="0" parent="1">
          <mxGeometry x="160" y="10" width="510" height="450" as="geometry" />
        </mxCell>
        <mxCell id="FloDfBj_NZVXO9WBRrSj-39" value="&lt;h1&gt;No-Sql&lt;/h1&gt;&lt;div&gt;Couchbase / Mongo&amp;nbsp;&lt;/div&gt;" style="text;html=1;strokeColor=none;fillColor=none;spacing=5;spacingTop=-20;whiteSpace=wrap;overflow=hidden;rounded=0;" vertex="1" parent="FloDfBj_NZVXO9WBRrSj-41">
          <mxGeometry x="190" y="330" width="190" height="120" as="geometry" />
        </mxCell>
        <mxCell id="FloDfBj_NZVXO9WBRrSj-40" value="" style="group" vertex="1" connectable="0" parent="FloDfBj_NZVXO9WBRrSj-41">
          <mxGeometry width="510" height="320" as="geometry" />
        </mxCell>
        <mxCell id="FloDfBj_NZVXO9WBRrSj-1" value="" style="shape=cylinder3;whiteSpace=wrap;html=1;boundedLbl=1;backgroundOutline=1;size=15;" vertex="1" parent="FloDfBj_NZVXO9WBRrSj-40">
          <mxGeometry x="210" y="240" width="60" height="80" as="geometry" />
        </mxCell>
        <mxCell id="FloDfBj_NZVXO9WBRrSj-6" value="DB" style="text;html=1;align=center;verticalAlign=middle;resizable=0;points=[];autosize=1;strokeColor=none;fillColor=none;" vertex="1" parent="FloDfBj_NZVXO9WBRrSj-40">
          <mxGeometry x="220" y="280" width="40" height="30" as="geometry" />
        </mxCell>
        <mxCell id="FloDfBj_NZVXO9WBRrSj-9" value="UI" style="whiteSpace=wrap;html=1;aspect=fixed;" vertex="1" parent="FloDfBj_NZVXO9WBRrSj-40">
          <mxGeometry x="10" y="100" width="80" height="80" as="geometry" />
        </mxCell>
        <mxCell id="FloDfBj_NZVXO9WBRrSj-29" style="edgeStyle=orthogonalEdgeStyle;rounded=0;orthogonalLoop=1;jettySize=auto;html=1;exitX=0;exitY=0.75;exitDx=0;exitDy=0;entryX=1;entryY=0.75;entryDx=0;entryDy=0;" edge="1" parent="FloDfBj_NZVXO9WBRrSj-40" source="FloDfBj_NZVXO9WBRrSj-10" target="FloDfBj_NZVXO9WBRrSj-9">
          <mxGeometry relative="1" as="geometry" />
        </mxCell>
        <mxCell id="FloDfBj_NZVXO9WBRrSj-35" value="4" style="edgeLabel;html=1;align=center;verticalAlign=middle;resizable=0;points=[];" vertex="1" connectable="0" parent="FloDfBj_NZVXO9WBRrSj-29">
          <mxGeometry x="0.2354" y="2" relative="1" as="geometry">
            <mxPoint as="offset" />
          </mxGeometry>
        </mxCell>
        <mxCell id="FloDfBj_NZVXO9WBRrSj-10" value="Back End" style="whiteSpace=wrap;html=1;aspect=fixed;" vertex="1" parent="FloDfBj_NZVXO9WBRrSj-40">
          <mxGeometry x="320" y="100" width="80" height="80" as="geometry" />
        </mxCell>
        <mxCell id="FloDfBj_NZVXO9WBRrSj-27" style="edgeStyle=orthogonalEdgeStyle;rounded=0;orthogonalLoop=1;jettySize=auto;html=1;exitX=0.5;exitY=1;exitDx=0;exitDy=0;entryX=1;entryY=0.5;entryDx=0;entryDy=0;entryPerimeter=0;" edge="1" parent="FloDfBj_NZVXO9WBRrSj-40" source="FloDfBj_NZVXO9WBRrSj-10" target="FloDfBj_NZVXO9WBRrSj-1">
          <mxGeometry relative="1" as="geometry" />
        </mxCell>
        <mxCell id="FloDfBj_NZVXO9WBRrSj-33" value="2" style="edgeLabel;html=1;align=center;verticalAlign=middle;resizable=0;points=[];" vertex="1" connectable="0" parent="FloDfBj_NZVXO9WBRrSj-27">
          <mxGeometry x="-0.425" y="1" relative="1" as="geometry">
            <mxPoint as="offset" />
          </mxGeometry>
        </mxCell>
        <mxCell id="FloDfBj_NZVXO9WBRrSj-26" style="edgeStyle=orthogonalEdgeStyle;rounded=0;orthogonalLoop=1;jettySize=auto;html=1;exitX=1;exitY=0.5;exitDx=0;exitDy=0;entryX=0;entryY=0.5;entryDx=0;entryDy=0;" edge="1" parent="FloDfBj_NZVXO9WBRrSj-40" source="FloDfBj_NZVXO9WBRrSj-9" target="FloDfBj_NZVXO9WBRrSj-10">
          <mxGeometry relative="1" as="geometry" />
        </mxCell>
        <mxCell id="FloDfBj_NZVXO9WBRrSj-32" value="1" style="edgeLabel;html=1;align=center;verticalAlign=middle;resizable=0;points=[];" vertex="1" connectable="0" parent="FloDfBj_NZVXO9WBRrSj-26">
          <mxGeometry x="-0.3262" y="3" relative="1" as="geometry">
            <mxPoint as="offset" />
          </mxGeometry>
        </mxCell>
        <mxCell id="FloDfBj_NZVXO9WBRrSj-28" style="edgeStyle=orthogonalEdgeStyle;rounded=0;orthogonalLoop=1;jettySize=auto;html=1;exitX=1;exitY=0;exitDx=0;exitDy=52.5;exitPerimeter=0;entryX=0.869;entryY=1.053;entryDx=0;entryDy=0;entryPerimeter=0;" edge="1" parent="FloDfBj_NZVXO9WBRrSj-40" source="FloDfBj_NZVXO9WBRrSj-1" target="FloDfBj_NZVXO9WBRrSj-10">
          <mxGeometry relative="1" as="geometry" />
        </mxCell>
        <mxCell id="FloDfBj_NZVXO9WBRrSj-34" value="3" style="edgeLabel;html=1;align=center;verticalAlign=middle;resizable=0;points=[];" vertex="1" connectable="0" parent="FloDfBj_NZVXO9WBRrSj-28">
          <mxGeometry x="0.4275" y="-2" relative="1" as="geometry">
            <mxPoint as="offset" />
          </mxGeometry>
        </mxCell>
        <mxCell id="FloDfBj_NZVXO9WBRrSj-37" value="&lt;h1&gt;UI&lt;/h1&gt;&lt;div&gt;React.js / Next.js&amp;nbsp;&lt;/div&gt;" style="text;html=1;strokeColor=none;fillColor=none;spacing=5;spacingTop=-20;whiteSpace=wrap;overflow=hidden;rounded=0;" vertex="1" parent="FloDfBj_NZVXO9WBRrSj-40">
          <mxGeometry y="20" width="190" height="120" as="geometry" />
        </mxCell>
        <mxCell id="FloDfBj_NZVXO9WBRrSj-38" value="&lt;h1&gt;Rest Api Server&lt;/h1&gt;&lt;div&gt;Java Spring Boot / python + flask / Next.js / Java Script (Express.js)&lt;/div&gt;&lt;div&gt;&lt;br&gt;&lt;/div&gt;" style="text;html=1;strokeColor=none;fillColor=none;spacing=5;spacingTop=-20;whiteSpace=wrap;overflow=hidden;rounded=0;" vertex="1" parent="FloDfBj_NZVXO9WBRrSj-40">
          <mxGeometry x="320" width="190" height="120" as="geometry" />
        </mxCell>
      </root>
    </mxGraphModel>
  </diagram>
</mxfile>
